<svg id="Layer_1" data-name="Layer 1" xmlns="http://www.w3.org/2000/svg" viewBox="0 0 2482.5 2482.5"><defs><style>.cls-1{fill:none;}.cls-2{fill:#fff;}</style></defs><circle class="cls-1" cx="1241.25" cy="1241.25" r="1241.25"/><path class="cls-2" d="M1043.67,612c16.33,8.9,21.53,22.49,21.43,41-.64,116.14-.37,232.29-.3,348.44,0,78.49-33.71,137.11-103.23,174-9.91,5.26-8.37,12.24-8.37,19.87q-.08,432.17.08,864.32c0,30.49-9.23,56.63-33.14,75.88-28.67,23.1-60.94,28.07-94.65,12.59-34.14-15.68-52.68-43.5-53-81-.81-84.47-.28-168.94-.28-253.41q0-309.23.26-618.45c0-10.86-2.77-16.47-12.68-22-63.77-35.29-98.1-90-98.86-162.84-1.24-120.66-.12-241.34-.59-362-.07-17.33,7.41-28.33,21.35-36.5h18.1c16.32,8.9,21.56,22.48,21.43,41-.68,100.53-.18,201.08-.54,301.62,0,10.19,2.07,14.69,13.08,13.54a121,121,0,0,1,27.1,0c12.47,1.52,14.65-3.77,14.6-15.08-.41-100,.13-200.08-.56-300.12-.13-18.55,5.08-32.14,21.43-41h18.1c16.32,8.9,21.56,22.48,21.43,41-.68,100.53-.18,201.08-.54,301.62,0,10.2,2.07,14.69,13.08,13.54a121,121,0,0,1,27.1,0c12.47,1.52,14.65-3.77,14.6-15.08-.41-100,.13-200.08-.56-300.12-.13-18.55,5.08-32.14,21.43-41H929c16.32,8.9,21.56,22.48,21.43,41-.68,100.53-.17,201.08-.54,301.62,0,10.2,2.07,14.69,13.08,13.54a121,121,0,0,1,27.1,0c12.47,1.52,14.65-3.77,14.6-15.08-.41-100,.13-200.08-.56-300.12-.13-18.55,5.08-32.14,21.43-41ZM832.48,1611.56v441.91c0,28.46,10.5,43.08,30.66,42.74,19.66-.34,29.7-14.58,29.7-42.2q0-442.67,0-885.33c0-25.78,4.68-32.1,28.53-41.13,39.75-15,65.7-43.07,78.32-83.7,3.28-10.57,3.64-15.95-10.85-15.84-84.45.66-168.92.53-253.37.08-11.67-.06-13.65,3.5-10.56,13.84,12.37,41.27,38.27,70,78.51,85.44,24.82,9.52,29.05,15.18,29.05,42.28Q832.5,1390.6,832.48,1611.56Z" transform="translate(-158.57 -173.57)"/><path class="cls-2" d="M2205.16,2081.22c-1.16,3.28-2.44,6.52-3.47,9.84-13.36,43.22-55.21,70.9-98.28,65-45.6-6.29-79-43.66-79.12-90.16q-.45-214.8.08-429.61c0-10.28-2.39-17.81-10.08-25-17.21-16.15-33.82-33-50-50.12-27.79-29.34-42.33-64.65-42.44-104.94-.38-136.67-3.74-273.46.82-410,6.18-185.13,90.14-329.83,243.32-434.16H2184a59,59,0,0,1,21.12,21.11ZM2144.84,703.81c-9.15,8.39-16,14.1-22.16,20.41-92.12,93.56-139.55,206.12-140.55,337.32-1,129.68-.13,259.38-.29,389.07,0,29.24,10.21,53.82,30.9,74.32,18.92,18.75,37.33,38,56.67,56.36,11.08,10.48,15.32,22.27,15.29,37.45q-.55,217.9-.21,435.82c0,5-.29,10.11.35,15.06a30,30,0,0,0,59.62-.12c.69-5.45.37-11,.37-16.57q0-664.29,0-1328.57Z" transform="translate(-158.57 -173.57)"/><path class="cls-2" d="M1861.21,1384.66c-.19,236.32-193.21,428.68-429.48,428-235.73-.65-427.45-193-427.25-428.75.2-236.32,193.15-428.6,429.46-428C1669.72,956.58,1861.41,1148.91,1861.21,1384.66Zm-60.31-.17c.09-203-165.25-368.31-368.25-368.21-202.39.09-367.41,164.77-367.86,367.09-.45,203,164.59,368.72,367.48,369S1800.82,1587.42,1800.9,1384.49Z" transform="translate(-158.57 -173.57)"/><path class="cls-2" d="M1435.63,1960.9c-113-.93-214.56-29.66-307.85-87.37-9.29-5.76-17.41-12.18-19.73-23.41-2.6-12.6,1.82-23,12-30.41,11.44-8.33,23.65-7.48,35.28-.1a526,526,0,0,0,108.16,52.44c200.93,70.42,428,7.81,564.12-155.45,3.22-3.86,6.37-7.79,9.77-11.48,13.06-14.22,29.43-16.37,42.82-5.73,13.72,10.9,15.45,28.9,3.37,44.2a554.48,554.48,0,0,1-99.67,98.14C1680,1920.78,1562.58,1959.9,1435.63,1960.9Z" transform="translate(-158.57 -173.57)"/><path class="cls-2" d="M1449.23,807.79c143.3,2.24,281.08,59.14,395.08,172.87,5.71,5.69,11.5,11.34,13.67,19.48,3.54,13.31-1.77,27.32-13.57,33.82-12.82,7-25.49,5.86-36.14-4.27-16.75-15.92-32.94-32.41-51.07-46.84-108.79-86.6-232.53-123.57-371-112.26-64.37,5.25-125.1,23-182.89,51.45-12,5.92-24.12,7.6-35.62-.68-9.21-6.64-13.54-16.13-12.2-27.56,1.57-13.44,10.47-20.72,22-26.4C1257.67,827.87,1342.42,808.15,1449.23,807.79Z" transform="translate(-158.57 -173.57)"/><path class="cls-2" d="M1077.48,1771.85c0,16.73-12.56,29.47-29.18,29.68-17.08.21-31.74-14.23-31.66-31.18a30.34,30.34,0,0,1,29.46-29.88C1063.1,1740.16,1077.51,1754.56,1077.48,1771.85Z" transform="translate(-158.57 -173.57)"/><path class="cls-2" d="M1155.51,1373.89c9.28-111.84,62.26-194.05,164.55-242.7,18.08-8.6,35-3.19,42.69,12.37,8,16.11,1.41,33-17.22,42-82.74,40.14-125.8,106.15-129.85,197.9-.82,18.5-13.45,31.06-30.26,30.9s-29.24-13.31-29.89-31.43C1155.42,1379.93,1155.51,1376.91,1155.51,1373.89Z" transform="translate(-158.57 -173.57)"/><path class="cls-2" d="M1401.83,1137.82c-.35-17.18,12.83-30.68,30.09-30.83,17-.14,31,13.56,31,30.25-.05,16.29-13,29.38-29.62,29.89C1415.77,1167.67,1402.17,1155,1401.83,1137.82Z" transform="translate(-158.57 -173.57)"/><path class="cls-2" d="M1391.05,2203.5h-53.47l-28-51.71q-6.74-12.6-13.55-19a26,26,0,0,0-15.6-7.33h-12.74v78.08h-47.32V1993.44h75q38.23,0,57.35,14.87t19.12,44.6q0,21-12.31,36.11t-33.69,22.34v.59q9.38,2.93,17.51,12.3a119.94,119.94,0,0,1,13.84,19.48Zm-123.34-174.61v60.79h20.51q15.38,0,24.61-9.23a31,31,0,0,0,9.22-22.85q0-14.35-8.2-21.53t-24.76-7.18Z" transform="translate(-158.57 -173.57)"/><path class="cls-2" d="M1646.37,2032h-59.91V2203.5H1539V2032h-59.62v-38.53h167Z" transform="translate(-158.57 -173.57)"/></svg>